PathFileType	4	(X/Y/Z)	RBDS025\RBDS025runT45.trc
DataRate	CameraRate	NumFrames	NumMarkers	Units	OrigDataRate	OrigDataStartFrame	OrigNumFrames
150.000000	150.000000	4	33	mm	150.000000	1687	4500
Frame#	Time	L.ASIS			L.Heel.Bottom			L.Heel.Lateral			L.Heel.Top			L.Iliac.Crest			L.MT1			L.MT5			L.PSIS			L.Shank.Bottom.Lateral			L.Shank.Bottom.Medial			L.Shank.Top.Lateral			L.Shank.Top.Medial			L.Thigh.Bottom.Lateral			L.Thigh.Bottom.Medial			L.Thigh.Top.Lateral			L.Thigh.Top.Medial			R.ASIS			R.ASY			R.Heel.Bottom			R.Heel.Lateral			R.Heel.Top			R.Iliac.Crest			R.MT1			R.MT5			R.PSIS			R.Shank.Bottom.Lateral			R.Shank.Bottom.Medial			R.Shank.Top.Lateral			R.Shank.Top.Medial			R.Thigh.Bottom.Lateral			R.Thigh.Bottom.Medial			R.Thigh.Top.Lateral			R.Thigh.Top.Medial			
		X1	Y1	Z1	X2	Y2	Z2	X3	Y3	Z3	X4	Y4	Z4	X5	Y5	Z5	X6	Y6	Z6	X7	Y7	Z7	X8	Y8	Z8	X9	Y9	Z9	X10	Y10	Z10	X11	Y11	Z11	X12	Y12	Z12	X13	Y13	Z13	X14	Y14	Z14	X15	Y15	Z15	X16	Y16	Z16	X17	Y17	Z17	X18	Y18	Z18	X19	Y19	Z19	X20	Y20	Z20	X21	Y21	Z21	X22	Y22	Z22	X23	Y23	Z23	X24	Y24	Z24	X25	Y25	Z25	X26	Y26	Z26	X27	Y27	Z27	X28	Y28	Z28	X29	Y29	Z29	X30	Y30	Z30	X31	Y31	Z31	X32	Y32	Z32	X33	Y33	Z33	

1688	11.24666666666667	2115.95270604447	881.8120828272874	916.6487840606931	1738.666506871362	58.80429795388563	1028.70109150781	1763.470424363069	79.24750415873861	983.3983787850176	1757.786236598011	99.73417373539101	1031.968583506892	2039.728209286133	958.7938705514007	867.6045116238899	1947.94830533819	30.82421634895555	1032.371699327215	1902.440698516789	45.33276664446393	927.4788278433969	1965.792294518718	958.5078520958382	977.5739413365823	1886.453295741378	166.9077585649742	960.1796298224967	1844.320492922976	200.4878650723808	976.2668936848463	1926.521377871347	231.9922128884128	934.4746758109345	1885.393674803574	264.7652220241248	948.2582047125758	2050.105519036136	535.4079107589263	878.8240645345371	1986.281686410829	527.1926665705259	912.6308197329988	2025.006209841443	639.3162842318887	859.6077554349856	1966.817877290502	633.8702231590081	896.673043649379	2135.772187977759	880.1894320929183	1115.630449095151	1788.044697466372	273.9688316418515	1111.066436724238	1730.055307433914	453.6178898565619	1073.641309882143	1752.201380454372	434.0076803658633	1118.502937273079	1774.124402329591	445.3632309583932	1075.753834919946	2083.232945362535	943.3243124534556	1164.404908239356	1748.20618790618	240.1479611994748	1069.472399522272	1737.647879525781	284.3806239285902	1171.852622660764	1975.899010807859	951.2317644920167	1080.020682743549	1888.719999804051	408.8781995063652	1144.086223114188	1884.71060204815	446.8888898152725	1109.706660778064	1970.401803478152	429.1846206325173	1153.972477438685	1962.08305699734	468.0074133193143	1118.603765861656	2152.632250536105	536.0749612878897	1183.086283646057	2096.186846171512	511.4299645774163	1146.836525176519	2102.354590061868	633.6648874623525	1196.148302719189	2045.920734819334	607.6298854846843	1166.045695311128	
1689	11.25333333333333	2115.746691728466	884.0444318383069	916.793568962472	1710.045202576495	66.44849636008264	1028.417478317082	1735.332279708628	85.12178729342288	982.7150292686513	1730.397838012516	106.8050723154033	1030.852033584663	2041.718768572948	962.6251739536978	868.0148023859524	1917.251387447832	30.66431672830916	1032.364227683626	1872.590606853825	45.25712771765991	927.0876291611139	1966.261509920654	962.0719490648503	977.3429494592116	1859.939179718926	171.4663924626151	958.8597558670995	1818.588849630512	205.6893873769845	975.5010860641502	1901.079364572279	235.9634391302386	933.3834570115806	1860.564905235749	269.371810407334	947.4989015416152	2035.687077658199	537.3662169051572	878.9126209549678	1970.92687001233	531.9814817674688	911.7023859047752	2015.56933512466	642.3922358809483	859.7754677635181	1956.678261962938	639.592009278708	896.1617326828735	2135.625967237881	885.0550551794432	1115.711691186262	1815.987840620044	258.5959689232309	1109.869734463234	1743.861925856851	433.0283033915664	1073.078621660339	1767.334378535444	415.1241034482885	1117.759316605399	1788.311915564508	428.4663207323468	1074.956157943623	2082.073228182472	948.2716672364882	1164.725501063464	1779.367103215843	221.930616472645	1068.287367838896	1764.891175090865	264.6038037723279	1170.533619932732	1975.731202581501	955.591223445025	1079.927174091751	1906.105386994736	400.3354585142228	1142.988961864094	1899.407380215293	437.9528187900948	1108.60100857594	1986.083056986499	426.3804398035568	1152.81195452138	1975.040376652229	464.4741739241898	1117.391541509745	2164.392603768841	546.5367864035059	1182.35741992923	2109.188147521443	519.6710602729781	1145.625785167927	2109.856594286801	641.7610415940756	1195.863213873072	2054.583642274932	613.3034965472306	1165.384843052413	
1690	11.26	2115.912093832657	886.4779865092963	917.041311623919	1682.373252292677	75.41689325170535	1027.942750189437	1708.093064136151	91.99410774905819	981.7967364849952	1704.185288794926	114.9665107296798	1029.416457599318	2044.187832380952	966.4970016307859	868.5611539549049	1886.84401635924	30.68467045132142	1032.162910003013	1842.9446486088	45.32385351400985	926.4922181639939	1967.098616890105	965.7688521825874	977.2660754622895	1834.00548818331	176.9863810677026	956.9631977127862	1793.502288893675	211.6473231524252	974.4896020264039	1875.988443970374	241.0507959898104	931.7431169517643	1836.128049935348	274.915783590939	946.4969176021436	2021.327440472878	540.392262873404	878.5720926666722	1955.899186819306	537.8903500178137	910.5376920170781	2006.2840171563	646.3017630551113	859.7319520342107	1946.888302132443	646.1632854145678	895.5553131951386	2135.856827418487	890.2912640775121	1115.777750446815	1844.830344070887	243.2598971655786	1108.789810671348	1758.569268537073	410.8808076617177	1071.909298750304	1783.187603889881	395.0195645522564	1116.49968248824	1803.126057904316	410.246946313463	1073.638359062647	2081.705384539905	953.8125345545858	1165.096289893786	1811.968771050512	203.7516836722593	1067.281835239879	1793.292933029432	244.7932155567835	1169.195863236545	1975.94760398219	960.2737591756055	1080.004174256348	1923.456662156912	391.3386470091501	1141.671766727007	1913.981455550763	428.2970217460991	1107.19544922982	2001.214021820912	423.3373855354297	1151.429830473561	1987.371266339965	460.4336086699231	1115.924565303896	2175.01966718244	557.3894083810954	1181.490861906621	2121.037899567026	528.6842579311243	1144.211369564403	2116.677679034983	650.2461321354523	1195.68475034708	2062.627167233443	619.7820153061932	1164.600245518564	
1691	11.26666666666667	2116.449822492862	889.0297185228193	917.4309461750807	1655.910818440668	85.69960343642188	1027.210741660497	1681.973644921755	99.87672576998128	980.593397070276	1679.377852178613	124.1735166892756	1027.610342270553	2047.089900984213	970.2772577106531	869.2024921105281	1856.882239840238	30.98327666211794	1031.696775006767	1813.600610092881	45.62964078123467	925.6742409313888	1968.297889467199	969.5378756252102	977.2993045320579	1808.808131618808	183.4497986901205	954.4574362459495	1769.21756433746	218.3199885696628	973.2110798235248	1851.39470371768	247.2519117844022	929.5464880448138	1812.239417242486	281.371442487772	945.2713142056158	2007.080933799569	544.4941084461046	877.8075511562951	1941.265951010239	544.907752140224	909.1703272909577	1997.178435966283	651.0411222381888	859.4758746190182	1937.497745582336	653.5604187349491	894.8869926020124	2136.413075013805	895.8164410060481	1115.868231636078	1874.639310768491	228.1438159900726	1107.828889522166	1774.495907225364	387.3765848986421	1070.1733634526	1800.046244651454	373.8486015037612	1114.765442462689	1818.851188038125	390.8390774831051	1071.83495125651	2082.071325342838	959.8863653526244	1165.521686858435	1846.041887064301	185.8954710569163	1066.470690645636	1822.959794360788	225.1725386274181	1167.884586873469	1976.525678905597	965.1939365492132	1080.211703332462	1940.935692820736	381.8650287250267	1140.143883049063	1928.649492867344	417.8901804846886	1105.511431871568	2015.926417372955	419.9092406855652	1149.843189688881	1999.269866206709	455.731181358828	1114.220788228572	2184.4990190867	568.3309032686806	1180.488928865287	2131.655538576861	538.1516306666931	1142.656391449171	2122.830795565236	658.8899896051945	1195.599247028096	2069.996971955825	626.8477368000957	1163.74622260347	
